<svg id="Layer_1" data-name="Layer 1" xmlns="http://www.w3.org/2000/svg" viewBox="0 0 527.1 101.6"><defs><style>.cls-1{fill:#fff;}.cls-2{fill:#2ca01c;}.cls-3{fill:none;}</style></defs><title>Artboard 1</title><g id="QuickBooks_-_Clearspace_Lockup" data-name="QuickBooks - Clearspace &amp; Lockup"><g id="QuickBooks_Lockup" data-name="QuickBooks Lockup"><g id="Wordmark"><path id="_" data-name="®" class="cls-1" d="M524.6 77.1c0-1.1-.9-1.5-1.9-1.5h-1.8v5h.9v-2.1h.6l1.2 2.1h1.1l-1.3-2.2a1.31 1.31 0 0 0 1.2-1.3zm-2.8.7v-1.4h.8c.5 0 1 .1 1 .7s-.6.7-1.1.7h-.7zm.9-4.1a4.37 4.37 0 0 0-4.4 4.4 4.44 4.44 0 0 0 4.4 4.4 4.4 4.4 0 1 0 0-8.8zm0 8.2a3.7 3.7 0 1 1 3.7-3.7 3.76 3.76 0 0 1-3.7 3.7z"/><path id="quickbooks" class="cls-1" d="M236.6 74.5c-6.5 0-9.8-5.8-9.8-11.4s3.6-11.2 9.5-11.2c2.8 0 6.3 1.4 7.6 3.3l6.9-6.9c-3.3-3.5-8.6-5.6-14.5-5.6-12 0-20.7 8.6-20.7 20.4 0 12 8.6 20.4 20.9 20.4 5.9 0 11.3-1.7 14.5-5.2l-6.7-7.2c-1.5 2-4.7 3.4-7.7 3.4zm-38.5 8h10.7V43.8h-10.7zM178.7 65c0 4.5-3 9.4-8.5 9.4-4.3 0-6.5-3-6.5-9.3V43.7H153v24c0 8 4 15.8 14.6 15.8 5 0 9.2-4 11.4-6.9h.2v5.8h10.2V43.7h-10.7zm-45-16.3h-.2c-1.5-1.7-5.6-6-12.2-6-10.9 0-19.3 8.5-19.3 20.3s7.7 20.6 18.8 20.6a17.5 17.5 0 0 0 12.4-5.7h.2v23.7h10.7V43.9h-10.3v4.8zm-10.3 25.8c-6.6 0-10.4-5.8-10.4-11.5 0-5.4 3.4-11.3 10.4-11.3 6.4 0 10.3 5.9 10.3 11.5s-3.9 11.3-10.3 11.3zm243.3-31.8c-12.2 0-21 8.5-21 20.3 0 12.2 9 20.7 21 20.7s21-8.6 21-20.7c0-11.7-8.8-20.3-21-20.3zm0 31.8c-7 0-10.1-5.9-10.1-11.5 0-5.4 3.2-11.3 10.1-11.3s10.1 5.9 10.1 11.3-3.1 11.5-10.1 11.5zm133.6-15.8c-5.5-1.3-7.4-2-7.4-4.2 0-3.1 3.9-3.7 5.7-3.7 3.3 0 7.1 2 8.5 3.9l6.3-6c-2.9-3.7-8.6-5.8-14.7-5.8-7.7 0-15.8 3.9-15.8 12.6 0 7.5 5.8 9.7 11.6 11.1 6 1.4 8.2 2.4 8.2 4.9 0 3.6-4.1 4.2-5.5 4.2a13.76 13.76 0 0 1-9.7-4.6l-6.5 6.6c3.5 3.9 9.6 6.3 15.8 6.3 10.4 0 16.6-5 16.6-13.2-.2-8.2-7.7-10.8-13.1-12.1zm-20.2-14.9h-13.8l-13.8 16.1h-.2V22.5h-10.7v60h10.7V63.4h.2l14.3 19.1h14.1l-16.6-21.1zm-158.5-1.1c-4.9 0-8.5 2.1-11.9 5.3h-.1V22.4h-10.7v60h10.2v-5.5h.2a14.37 14.37 0 0 0 12.2 6.6c11 0 19.4-8.7 19.4-20.6-.1-11.6-8.4-20.2-19.3-20.2zm-2.1 31.8c-6.4 0-10.3-5.7-10.3-11.3s3.9-11.5 10.3-11.5c6.9 0 10.4 5.9 10.4 11.3 0 5.7-3.7 11.5-10.4 11.5zm-24.6-30.7h-13.8l-13.8 16.1h-.2V22.5h-10.7v60h10.7V63.4h.2l14.3 19.1h14.1l-16.6-21.1zm118.7-1.1c-12.2 0-21 8.5-21 20.3 0 12.2 9 20.7 21 20.7s21-8.6 21-20.7c0-11.7-8.8-20.3-21-20.3zm0 31.8c-7 0-10.1-5.9-10.1-11.5 0-5.4 3.2-11.3 10.1-11.3s10.1 5.9 10.1 11.3-3.1 11.5-10.1 11.5z"/></g><g id="Icon"><circle id="Circle" class="cls-2" cx="45" cy="45" r="45"/><path id="qb" class="cls-1" d="M12.5 45A17.46 17.46 0 0 0 30 62.5h2.5V56H30a11 11 0 0 1 0-22h6v34a6.49 6.49 0 0 0 6.5 6.5v-47H30A17.46 17.46 0 0 0 12.5 45zM60 27.5h-2.5V34H60a11 11 0 0 1 0 22h-6V22a6.49 6.49 0 0 0-6.5-6.5v47H60a17.5 17.5 0 0 0 0-35z"/></g><path id="intuit" class="cls-1" d="M146 10.3a3 3 0 1 0-3-3 3.15 3.15 0 0 0 3 3zm-17.7 2a6.84 6.84 0 0 0-6.1 3.7h-.1v-3.2h-4.7v19.7h4.9V21.7c0-2.6 1.5-5.3 4.6-5.3s3.7 2.9 3.7 5.2v10.9h4.9V20.2c.1-4-2.1-7.9-7.2-7.9zm-20.8 20.2h4.9V12.8h-4.9zM197 10.3a3 3 0 1 0-3-3 3 3 0 0 0 3 3zm-8 2.5v4.4h5.5v15.3h4.9V17.2h5.5v-4.4zm-8.4 19.7h4.9V12.8h-4.9zm-42.5-15.3h5.5v15.3h4.9V17.2h5.5v-4.4h-16v4.4zm32.5 6.5c0 2.6-1.5 5.3-4.6 5.3s-3.7-2.9-3.7-5.2V12.9h-4.9v12.3c0 4 2.1 8 7.3 8a6.84 6.84 0 0 0 6.1-3.7h.1v3.2h4.7V13h-5z"/></g><path id="Clearspace" class="cls-3" d="M-45-45h603.3v191.5H-45z"/></g></svg>